<?xml version="1.0" encoding="utf-8"?>
<!-- Generator: Adobe Illustrator 26.0.2, SVG Export Plug-In . SVG Version: 6.00 Build 0)  -->
<svg version="1.1" id="图层_1" xmlns="http://www.w3.org/2000/svg" xmlns:xlink="http://www.w3.org/1999/xlink" x="0px" y="0px"
	 viewBox="0 0 28 63" style="enable-background:new 0 0 28 63;" xml:space="preserve">
<style type="text/css">
	.st0{fill:none;stroke:#000000;stroke-miterlimit:10;}
</style>
<g>
	<path class="st0" d="M18.76,8.95l-3.82,2.2v0.01l-9.49,5.48v4.39l3.82,2.2l5.67-3.3v19.34l-5.67,3.28v-6.14l-3.82-2.2l-3.82,2.2
		v10.55c0,1.17,0.38,1.98,1.14,2.42l3.82,2.2c0.76,0.44,1.66,0.37,2.68-0.22l9.49-5.49c0.67-0.38,1.3-0.94,1.87-1.69
		c0.57-0.75,1.04-1.56,1.41-2.44c0.37-0.88,0.55-1.7,0.55-2.46V11.14L18.76,8.95z"/>
	<path class="st0" d="M22.55,11.14l-3.82,2.2v0.01l-9.49,5.48v4.39l3.82,2.2l5.67-3.3v19.34l-5.67,3.28v-6.14l-3.82-2.2l-3.82,2.2
		v10.55c0,1.17,0.38,1.98,1.14,2.42l3.82,2.2c0.76,0.44,1.66,0.37,2.68-0.22l9.49-5.49c0.67-0.38,1.3-0.94,1.87-1.69
		c0.57-0.75,1.04-1.56,1.41-2.44c0.37-0.88,0.55-1.7,0.55-2.46V13.34L22.55,11.14z"/>
</g>
</svg>
